<svg xmlns="http://www.w3.org/2000/svg" fill="none" viewBox="2 0 42 49">
<g filter="url(#filter0_d_158_981)">
<path d="M2 12.5L23 0L44 12.5V36.5L23 49L2 36.5V12.5Z" fill="#660000"/>
<path d="M15.6356 28.6556L16.8468 30.2471L26.396 22.98L27.6072 24.5715L29.1988 23.3603L27.9876 21.7688L29.5791 20.5576L28.3679 18.966L26.7764 20.1772L25.5652 18.5857L23.9737 19.7969L25.1848 21.3884L15.6356 28.6556ZM21.1709 19.4165L22.7625 18.2053L23.9737 19.7969L22.3821 21.0081L21.1709 19.4165ZM21.1709 19.4165L19.5794 20.6277L18.3682 19.0362L19.9597 17.825L21.1709 19.4165ZM27.2269 27.3743L28.8184 26.1631L27.6072 24.5715L26.0157 25.7827L27.2269 27.3743ZM27.2269 27.3743L25.6353 28.5854L26.8465 30.177L28.4381 28.9658L27.2269 27.3743Z" fill="white"/>
</g>
<defs>
<filter id="filter0_d_158_981" x="0" y="0" width="46" height="53" filterUnits="userSpaceOnUse" color-interpolation-filters="sRGB">
<feFlood flood-opacity="0" result="BackgroundImageFix"/>
<feColorMatrix in="SourceAlpha" type="matrix" values="0 0 0 0 0 0 0 0 0 0 0 0 0 0 0 0 0 0 127 0" result="hardAlpha"/>
<feOffset dy="2"/>
<feGaussianBlur stdDeviation="1"/>
<feComposite in2="hardAlpha" operator="out"/>
<feColorMatrix type="matrix" values="0 0 0 0 0 0 0 0 0 0 0 0 0 0 0 0 0 0 0.15 0"/>
<feBlend mode="normal" in2="BackgroundImageFix" result="effect1_dropShadow_158_981"/>
<feBlend mode="normal" in="SourceGraphic" in2="effect1_dropShadow_158_981" result="shape"/>
</filter>
</defs>
</svg>