<svg width="39" height="39" viewBox="0 0 39 39" fill="none" xmlns="http://www.w3.org/2000/svg">
<path d="M19.4993 27.8327C21.7095 27.8327 23.8291 26.9547 25.3919 25.3919C26.9547 23.8291 27.8327 21.7095 27.8327 19.4993C27.8327 17.2892 26.9547 15.1696 25.3919 13.6068C23.8291 12.044 21.7095 11.166 19.4993 11.166C17.2892 11.166 15.1696 12.044 13.6068 13.6068C12.044 15.1696 11.166 17.2892 11.166 19.4993C11.166 21.7095 12.044 23.8291 13.6068 25.3919C15.1696 26.9547 17.2892 27.8327 19.4993 27.8327Z" stroke="white" stroke-linecap="round" stroke-linejoin="round"/>
<path d="M0.75 27.8333V11.1667C0.75 8.40399 1.84747 5.75447 3.80097 3.80097C5.75447 1.84747 8.40399 0.75 11.1667 0.75H27.8333C30.596 0.75 33.2455 1.84747 35.199 3.80097C37.1525 5.75447 38.25 8.40399 38.25 11.1667V27.8333C38.25 30.596 37.1525 33.2455 35.199 35.199C33.2455 37.1525 30.596 38.25 27.8333 38.25H11.1667C8.40399 38.25 5.75447 37.1525 3.80097 35.199C1.84747 33.2455 0.75 30.596 0.75 27.8333Z" stroke="white"/>
<path d="M30.959 8.06198L30.9798 8.03906" stroke="white" stroke-linecap="round" stroke-linejoin="round"/>
</svg>
