<svg width="25" height="25" viewBox="0 0 25 25" fill="none" xmlns="http://www.w3.org/2000/svg">
<path d="M12.25 17.5C13.5761 17.5 14.8479 16.9732 15.7855 16.0355C16.7232 15.0979 17.25 13.8261 17.25 12.5C17.25 11.1739 16.7232 9.90215 15.7855 8.96447C14.8479 8.02678 13.5761 7.5 12.25 7.5C10.9239 7.5 9.65215 8.02678 8.71447 8.96447C7.77678 9.90215 7.25 11.1739 7.25 12.5C7.25 13.8261 7.77678 15.0979 8.71447 16.0355C9.65215 16.9732 10.9239 17.5 12.25 17.5Z" stroke="#660000" stroke-width="1.5" stroke-linecap="round" stroke-linejoin="round"/>
<path d="M1 17.5V7.5C1 5.8424 1.65848 4.25269 2.83058 3.08058C4.00269 1.90848 5.5924 1.25 7.25 1.25H17.25C18.9076 1.25 20.4973 1.90848 21.6694 3.08058C22.8415 4.25269 23.5 5.8424 23.5 7.5V17.5C23.5 19.1576 22.8415 20.7473 21.6694 21.9194C20.4973 23.0915 18.9076 23.75 17.25 23.75H7.25C5.5924 23.75 4.00269 23.0915 2.83058 21.9194C1.65848 20.7473 1 19.1576 1 17.5Z" stroke="#660000" stroke-width="1.5"/>
<path d="M19.125 5.63777L19.1375 5.62402" stroke="#660000" stroke-width="1.5" stroke-linecap="round" stroke-linejoin="round"/>
</svg>
