<svg width="40" height="40" viewBox="0 0 40 40" fill="none" xmlns="http://www.w3.org/2000/svg">
<path d="M38.8335 11.7499V28.4166C38.8335 31.1793 37.736 33.8288 35.7825 35.7823C33.829 37.7358 31.1795 38.8333 28.4168 38.8333H11.7502C8.98749 38.8333 6.33797 37.7358 4.38447 35.7823C2.43096 33.8288 1.3335 31.1793 1.3335 28.4166V11.7499C1.3335 8.98725 2.43096 6.33773 4.38447 4.38422C6.33797 2.43072 8.98749 1.33325 11.7502 1.33325H28.4168C31.1795 1.33325 33.829 2.43072 35.7825 4.38422C37.736 6.33773 38.8335 8.98725 38.8335 11.7499Z" stroke="white" stroke-linecap="round" stroke-linejoin="round"/>
<path d="M15.917 20.0833C14.6809 20.0833 13.4725 20.4498 12.4447 21.1366C11.4169 21.8233 10.6158 22.7994 10.1427 23.9415C9.6697 25.0835 9.54593 26.3402 9.78709 27.5526C10.0282 28.7649 10.6235 29.8786 11.4976 30.7527C12.3717 31.6267 13.4853 32.222 14.6977 32.4632C15.9101 32.7043 17.1667 32.5805 18.3088 32.1075C19.4508 31.6345 20.4269 30.8334 21.1137 29.8056C21.8004 28.7778 22.167 27.5694 22.167 26.3333V7.58325C22.8607 9.66659 25.5003 13.8333 30.5003 13.8333" stroke="white" stroke-linecap="round" stroke-linejoin="round"/>
</svg>
