<svg width="26" height="25" viewBox="0 0 26 25" fill="none" xmlns="http://www.w3.org/2000/svg">
<g clip-path="url(#clip0_307_213)">
<path d="M24.4585 7.03129V17.448C24.4585 19.1746 23.7726 20.8306 22.5516 22.0515C21.3307 23.2725 19.6747 23.9584 17.9481 23.9584H7.53141C5.80474 23.9584 4.14879 23.2725 2.92785 22.0515C1.70691 20.8306 1.021 19.1746 1.021 17.448V7.03129C1.021 5.30462 1.70691 3.64867 2.92785 2.42773C4.14879 1.20679 5.80474 0.520874 7.53141 0.520874H17.9481C19.6747 0.520874 21.3307 1.20679 22.5516 2.42773C23.7726 3.64867 24.4585 5.30462 24.4585 7.03129Z" stroke="#660000" stroke-width="1.5" stroke-linecap="round" stroke-linejoin="round"/>
<path d="M10.1357 12.2396C9.36316 12.2396 8.60793 12.4687 7.96555 12.8979C7.32317 13.3272 6.82249 13.9372 6.52684 14.651C6.23118 15.3648 6.15383 16.1502 6.30455 16.9079C6.45527 17.6657 6.82731 18.3617 7.37361 18.908C7.91991 19.4543 8.61593 19.8263 9.37367 19.9771C10.1314 20.1278 10.9168 20.0504 11.6306 19.7548C12.3444 19.4591 12.9544 18.9584 13.3837 18.3161C13.8129 17.6737 14.042 16.9185 14.042 16.1459V4.42712C14.4756 5.72921 16.1253 8.33337 19.2503 8.33337" stroke="#660000" stroke-width="1.5" stroke-linecap="round" stroke-linejoin="round"/>
</g>
<defs>
<clipPath id="clip0_307_213">
<rect width="25" height="25" fill="white" transform="translate(0.5)"/>
</clipPath>
</defs>
</svg>
