<svg width="26" height="25" viewBox="0 0 26 25" fill="none" xmlns="http://www.w3.org/2000/svg">
<g clip-path="url(#clip0_158_934)">
<path d="M24.4577 3.13547C24.4577 3.13547 22.3556 4.37714 21.1868 4.72922C20.5595 4.00788 19.7257 3.49661 18.7983 3.26456C17.8709 3.03252 16.8947 3.09089 16.0015 3.43178C15.1084 3.77267 14.3415 4.37964 13.8045 5.1706C13.2676 5.96155 12.9865 6.89833 12.9993 7.85423V8.89589C11.1688 8.94336 9.35484 8.53736 7.71915 7.71406C6.08346 6.89077 4.67676 5.67572 3.62435 4.17714C3.62435 4.17714 -0.542318 13.5521 8.83268 17.7188C6.6874 19.175 4.1318 19.9052 1.54102 19.8021C10.916 25.0105 22.3743 19.8021 22.3743 7.82298C22.3737 7.5327 22.3459 7.2445 22.291 6.95839C23.3535 5.91047 24.4577 3.13547 24.4577 3.13547Z" stroke="#660000" stroke-width="1.5" stroke-linecap="round" stroke-linejoin="round"/>
</g>
<defs>
<clipPath id="clip0_158_934">
<rect width="25" height="25" fill="white" transform="translate(0.5)"/>
</clipPath>
</defs>
</svg>
