<svg width="50" height="51" viewBox="0 0 50 51" fill="none" xmlns="http://www.w3.org/2000/svg">
<path d="M46.959 13.8757C46.6987 12.9012 46.1877 12.012 45.4767 11.2967C44.7657 10.5813 43.8797 10.0648 42.9069 9.79857C39.334 8.83398 25.0007 8.83398 25.0007 8.83398C25.0007 8.83398 10.6673 8.83398 7.0944 9.79857C6.12161 10.0648 5.23557 10.5813 4.5246 11.2967C3.81363 12.012 3.30256 12.9012 3.04232 13.8757C2.08398 17.4757 2.08398 24.9798 2.08398 24.9798C2.08398 24.9798 2.08398 32.484 3.04232 36.084C3.30224 37.0588 3.81317 37.9484 4.52416 38.6642C5.23515 39.3799 6.12136 39.8967 7.0944 40.1632C10.6694 41.1257 25.0007 41.1257 25.0007 41.1257C25.0007 41.1257 39.334 41.1257 42.9069 40.1632C43.8799 39.8967 44.7661 39.3799 45.4771 38.6642C46.1881 37.9484 46.6991 37.0588 46.959 36.084C47.9173 32.4882 47.9173 24.9798 47.9173 24.9798C47.9173 24.9798 47.9173 17.4757 46.959 13.8757ZM20.3132 31.7944V18.1673L32.2923 24.9819L20.3132 31.7944Z" stroke="white" stroke-miterlimit="10" stroke-linejoin="round"/>
</svg>
