<svg width="28" height="27" viewBox="0 0 28 27" fill="none" xmlns="http://www.w3.org/2000/svg">
<g clip-path="url(#clip0_158_936)">
<path d="M25.8575 7.2225C25.717 6.69632 25.441 6.21615 25.0571 5.82986C24.6731 5.44357 24.1947 5.16464 23.6694 5.02087C21.74 4.5 14 4.5 14 4.5C14 4.5 6.26 4.5 4.33062 5.02087C3.80532 5.16464 3.32686 5.44357 2.94293 5.82986C2.55901 6.21615 2.28303 6.69632 2.1425 7.2225C1.625 9.1665 1.625 13.2188 1.625 13.2188C1.625 13.2188 1.625 17.271 2.1425 19.215C2.28286 19.7414 2.55876 20.2218 2.9427 20.6083C3.32663 20.9948 3.80518 21.2739 4.33062 21.4178C6.26112 21.9375 14 21.9375 14 21.9375C14 21.9375 21.74 21.9375 23.6694 21.4178C24.1948 21.2739 24.6734 20.9948 25.0573 20.6083C25.4412 20.2218 25.7171 19.7414 25.8575 19.215C26.375 17.2732 26.375 13.2188 26.375 13.2188C26.375 13.2188 26.375 9.1665 25.8575 7.2225ZM11.4688 16.8986V9.54L17.9375 13.2199L11.4688 16.8986Z" stroke="#660000" stroke-width="1.5" stroke-miterlimit="10" stroke-linejoin="round"/>
</g>
<defs>
<clipPath id="clip0_158_936">
<rect width="27" height="27" fill="white" transform="translate(0.5)"/>
</clipPath>
</defs>
</svg>
