<svg width="52" height="52" viewBox="0 0 52 52" fill="none" xmlns="http://www.w3.org/2000/svg">
<path fill-rule="evenodd" clip-rule="evenodd" d="M27.5843 0C20.7598 0 14.7923 2.6552 10.1637 5.86744C5.54243 9.07457 2.12244 12.9269 0.348099 15.5735C-0.0267758 16.1326 -0.103932 16.8378 0.141273 17.4637L9.22567 40.6527L3.8154 49.9341L7.41662 52L13.3266 41.8613C13.6426 41.3194 13.6934 40.6644 13.4648 40.0809L4.42212 16.9984C6.06664 14.7915 8.87591 11.7976 12.5483 9.24902C16.717 6.35594 21.8644 4.12689 27.5843 4.12689C32.9904 4.12689 36.9208 5.50768 39.7916 7.61673C42.676 9.73573 44.6477 12.7059 45.9231 16.1326C48.2641 22.4222 48.157 29.991 47.2081 35.6118H29.036L25.9444 27.265C28.1107 25.7366 29.536 23.263 29.536 20.4281C29.536 15.6944 25.562 11.968 20.8 11.968C16.038 11.968 12.064 15.6944 12.064 20.4281C12.064 25.1617 16.038 28.8882 20.8 28.8882C21.234 28.8882 21.6615 28.8572 22.0801 28.7974L25.6319 38.3869C25.9327 39.199 26.7122 39.7387 27.5843 39.7387H48.9323C49.9159 39.7387 50.765 39.0551 50.9676 38.1003C52.273 31.9487 52.7711 22.6172 49.8255 14.7031C48.3396 10.7107 45.9472 7.00366 42.2674 4.30024C38.574 1.58686 33.74 0 27.5843 0ZM16.224 20.4281C16.224 18.0962 18.21 16.0949 20.8 16.0949C23.39 16.0949 25.376 18.0962 25.376 20.4281C25.376 22.76 23.39 24.7613 20.8 24.7613C18.21 24.7613 16.224 22.76 16.224 20.4281Z" fill="white"/>
</svg>
