<svg width="221" height="52" viewBox="0 0 221 52" fill="none" xmlns="http://www.w3.org/2000/svg">
<path fill-rule="evenodd" clip-rule="evenodd" d="M27.5843 0C20.7598 0 14.7923 2.6552 10.1637 5.86744C5.54243 9.07457 2.12244 12.9269 0.348099 15.5735C-0.0267758 16.1326 -0.103932 16.8378 0.141273 17.4637L9.22567 40.6527L3.8154 49.9341L7.41662 52L13.3266 41.8613C13.6426 41.3194 13.6934 40.6644 13.4648 40.0809L4.42212 16.9984C6.06664 14.7915 8.87591 11.7976 12.5483 9.24902C16.717 6.35594 21.8644 4.12689 27.5843 4.12689C32.9904 4.12689 36.9208 5.50768 39.7916 7.61673C42.676 9.73573 44.6477 12.7059 45.9231 16.1326C48.2641 22.4222 48.157 29.991 47.2081 35.6118H29.036L25.9444 27.265C28.1107 25.7366 29.536 23.263 29.536 20.4281C29.536 15.6944 25.562 11.968 20.8 11.968C16.038 11.968 12.064 15.6944 12.064 20.4281C12.064 25.1617 16.038 28.8882 20.8 28.8882C21.234 28.8882 21.6615 28.8572 22.0801 28.7974L25.6319 38.3869C25.9327 39.199 26.7122 39.7387 27.5843 39.7387H48.9323C49.9159 39.7387 50.765 39.0551 50.9676 38.1003C52.273 31.9487 52.7711 22.6172 49.8255 14.7031C48.3396 10.7107 45.9472 7.00366 42.2674 4.30024C38.574 1.58686 33.74 0 27.5843 0ZM16.224 20.4281C16.224 18.0962 18.21 16.0949 20.8 16.0949C23.39 16.0949 25.376 18.0962 25.376 20.4281C25.376 22.76 23.39 24.7613 20.8 24.7613C18.21 24.7613 16.224 22.76 16.224 20.4281Z" fill="white"/>
<path d="M68.2955 19.8636L71.5341 29.3409H71.6648L74.9034 19.8636H76.8011L72.6136 31.5H70.5852L66.3977 19.8636H68.2955ZM88.0114 25.6818C88.0114 26.9242 87.7841 27.9924 87.3295 28.8864C86.875 29.7765 86.2519 30.4621 85.4602 30.9432C84.6723 31.4205 83.7765 31.6591 82.7727 31.6591C81.7652 31.6591 80.8655 31.4205 80.0739 30.9432C79.286 30.4621 78.6648 29.7746 78.2102 28.8807C77.7557 27.9867 77.5284 26.9205 77.5284 25.6818C77.5284 24.4394 77.7557 23.3731 78.2102 22.483C78.6648 21.589 79.286 20.9034 80.0739 20.4261C80.8655 19.9451 81.7652 19.7045 82.7727 19.7045C83.7765 19.7045 84.6723 19.9451 85.4602 20.4261C86.2519 20.9034 86.875 21.589 87.3295 22.483C87.7841 23.3731 88.0114 24.4394 88.0114 25.6818ZM86.2727 25.6818C86.2727 24.7348 86.1193 23.9375 85.8125 23.2898C85.5095 22.6383 85.0928 22.1458 84.5625 21.8125C84.036 21.4754 83.4394 21.3068 82.7727 21.3068C82.1023 21.3068 81.5038 21.4754 80.9773 21.8125C80.4508 22.1458 80.0341 22.6383 79.7273 23.2898C79.4242 23.9375 79.2727 24.7348 79.2727 25.6818C79.2727 26.6288 79.4242 27.428 79.7273 28.0795C80.0341 28.7273 80.4508 29.2197 80.9773 29.5568C81.5038 29.8902 82.1023 30.0568 82.7727 30.0568C83.4394 30.0568 84.036 29.8902 84.5625 29.5568C85.0928 29.2197 85.5095 28.7273 85.8125 28.0795C86.1193 27.428 86.2727 26.6288 86.2727 25.6818ZM91.956 19.8636V31.5H90.2003V19.8636H91.956ZM98.2798 31.5H94.5128V19.8636H98.3991C99.5393 19.8636 100.518 20.0966 101.337 20.5625C102.155 21.0246 102.782 21.6894 103.217 22.5568C103.657 23.4205 103.876 24.4564 103.876 25.6648C103.876 26.8769 103.655 27.9186 103.212 28.7898C102.772 29.661 102.136 30.3314 101.303 30.8011C100.469 31.267 99.4616 31.5 98.2798 31.5ZM96.2685 29.9659H98.1832C99.0696 29.9659 99.8063 29.7992 100.393 29.4659C100.981 29.1288 101.42 28.642 101.712 28.0057C102.003 27.3655 102.149 26.5852 102.149 25.6648C102.149 24.7519 102.003 23.9773 101.712 23.3409C101.424 22.7045 100.994 22.2216 100.422 21.892C99.8499 21.5625 99.1397 21.3977 98.2912 21.3977H96.2685V29.9659ZM106.06 31.5V19.8636H110.207C111.109 19.8636 111.857 20.0189 112.452 20.3295C113.05 20.6402 113.497 21.0701 113.793 21.6193C114.088 22.1648 114.236 22.7955 114.236 23.5114C114.236 24.2235 114.086 24.8504 113.787 25.392C113.491 25.9299 113.045 26.3485 112.446 26.6477C111.851 26.947 111.103 27.0966 110.202 27.0966H107.06V25.5852H110.043C110.611 25.5852 111.073 25.5038 111.429 25.3409C111.789 25.178 112.052 24.9413 112.219 24.6307C112.385 24.3201 112.469 23.947 112.469 23.5114C112.469 23.072 112.384 22.6913 112.213 22.3693C112.046 22.0473 111.783 21.8011 111.423 21.6307C111.067 21.4564 110.599 21.3693 110.02 21.3693H107.815V31.5H106.06ZM111.804 26.25L114.679 31.5H112.679L109.861 26.25H111.804ZM116.372 31.5V19.8636H123.668V21.375H118.128V24.9205H123.287V26.4261H118.128V29.9886H123.736V31.5H116.372ZM126.996 31.5H125.132L129.32 19.8636H131.348L135.536 31.5H133.672L130.382 21.9773H130.291L126.996 31.5ZM127.308 26.9432H133.354V28.4205H127.308V26.9432ZM137.216 31.5V19.8636H138.972V29.9886H144.244V31.5H137.216ZM146.247 19.8636H148.378L152.082 28.9091H152.219L155.923 19.8636H158.054V31.5H156.384V23.0795H156.276L152.844 31.483H151.457L148.026 23.0739H147.918V31.5H146.247V19.8636ZM172.716 23.5398C172.606 23.1951 172.458 22.8864 172.273 22.6136C172.091 22.3371 171.873 22.1023 171.619 21.9091C171.366 21.7121 171.076 21.5625 170.75 21.4602C170.428 21.358 170.074 21.3068 169.688 21.3068C169.032 21.3068 168.441 21.4754 167.915 21.8125C167.388 22.1496 166.972 22.6439 166.665 23.2955C166.362 23.9432 166.21 24.7367 166.21 25.6761C166.21 26.6193 166.364 27.4167 166.67 28.0682C166.977 28.7197 167.398 29.214 167.932 29.5511C168.466 29.8883 169.074 30.0568 169.756 30.0568C170.388 30.0568 170.939 29.928 171.409 29.6705C171.883 29.4129 172.248 29.0492 172.506 28.5795C172.767 28.1061 172.898 27.5492 172.898 26.9091L173.352 26.9943H170.023V25.5455H174.597V26.8693C174.597 27.8466 174.388 28.6951 173.972 29.4148C173.559 30.1307 172.987 30.6837 172.256 31.0739C171.528 31.464 170.695 31.6591 169.756 31.6591C168.703 31.6591 167.778 31.4167 166.983 30.9318C166.191 30.447 165.574 29.7595 165.131 28.8693C164.688 27.9754 164.466 26.9148 164.466 25.6875C164.466 24.7595 164.595 23.9261 164.852 23.1875C165.11 22.4489 165.472 21.822 165.938 21.3068C166.407 20.7879 166.958 20.392 167.591 20.1193C168.227 19.8428 168.922 19.7045 169.676 19.7045C170.305 19.7045 170.89 19.7973 171.432 19.983C171.977 20.1686 172.462 20.4318 172.886 20.7727C173.314 21.1136 173.669 21.5189 173.949 21.9886C174.229 22.4545 174.419 22.9716 174.517 23.5398H172.716ZM177.449 31.5H175.585L179.773 19.8636H181.801L185.989 31.5H184.125L180.835 21.9773H180.744L177.449 31.5ZM177.761 26.9432H183.807V28.4205H177.761V26.9432ZM187.669 19.8636H189.8L193.504 28.9091H193.641L197.345 19.8636H199.476V31.5H197.805V23.0795H197.697L194.266 31.483H192.879L189.447 23.0739H189.339V31.5H187.669V19.8636ZM202.028 31.5V19.8636H209.324V21.375H203.784V24.9205H208.943V26.4261H203.784V29.9886H209.392V31.5H202.028ZM218.016 22.9205C217.955 22.3826 217.705 21.9659 217.266 21.6705C216.826 21.3712 216.273 21.2216 215.607 21.2216C215.129 21.2216 214.716 21.2973 214.368 21.4489C214.019 21.5966 213.749 21.8011 213.555 22.0625C213.366 22.3201 213.271 22.6136 213.271 22.9432C213.271 23.2197 213.336 23.4583 213.464 23.6591C213.597 23.8598 213.769 24.0284 213.982 24.1648C214.197 24.2973 214.429 24.4091 214.675 24.5C214.921 24.5871 215.158 24.6591 215.385 24.7159L216.521 25.0114C216.893 25.1023 217.273 25.2254 217.663 25.3807C218.054 25.536 218.415 25.7405 218.749 25.9943C219.082 26.2481 219.351 26.5625 219.555 26.9375C219.764 27.3125 219.868 27.7614 219.868 28.2841C219.868 28.9432 219.697 29.5284 219.357 30.0398C219.019 30.5511 218.529 30.9545 217.885 31.25C217.245 31.5455 216.47 31.6932 215.561 31.6932C214.69 31.6932 213.936 31.5549 213.3 31.2784C212.663 31.0019 212.165 30.6098 211.805 30.1023C211.446 29.5909 211.247 28.9848 211.209 28.2841H212.97C213.004 28.7045 213.141 29.0549 213.379 29.3352C213.622 29.6117 213.93 29.8182 214.305 29.9545C214.684 30.0871 215.099 30.1534 215.55 30.1534C216.046 30.1534 216.487 30.0758 216.874 29.9205C217.264 29.7614 217.571 29.5417 217.794 29.2614C218.018 28.9773 218.129 28.6458 218.129 28.267C218.129 27.9223 218.031 27.6402 217.834 27.4205C217.641 27.2008 217.377 27.0189 217.044 26.875C216.714 26.7311 216.341 26.6042 215.925 26.4943L214.55 26.1193C213.618 25.8655 212.879 25.4924 212.334 25C211.792 24.5076 211.521 23.8561 211.521 23.0455C211.521 22.375 211.703 21.7898 212.067 21.2898C212.43 20.7898 212.923 20.4015 213.544 20.125C214.165 19.8447 214.866 19.7045 215.646 19.7045C216.434 19.7045 217.129 19.8428 217.732 20.1193C218.338 20.3958 218.815 20.7765 219.163 21.2614C219.512 21.7424 219.694 22.2955 219.709 22.9205H218.016Z" fill="white"/>
</svg>
